<mxfile host="Electron" agent="Mozilla/5.0 (X11; Linux x86_64) AppleWebKit/537.36 (KHTML, like Gecko) draw.io/24.7.17 Chrome/128.0.6613.36 Electron/32.0.1 Safari/537.36" version="24.7.17">
  <diagram name="Página-1" id="LUhKTUrMw7wmdxUSNtai">
    <mxGraphModel dx="834" dy="2877" grid="0" gridSize="10" guides="0" tooltips="1" connect="0" arrows="0" fold="1" page="1" pageScale="1" pageWidth="827" pageHeight="1169" math="0" shadow="0">
      <root>
        <mxCell id="0" />
        <mxCell id="1" parent="0" />
        <mxCell id="LeFruTOL68ddHuIKSZCm-1" value="Usuário" style="shape=umlActor;verticalLabelPosition=bottom;verticalAlign=top;html=1;" parent="1" vertex="1">
          <mxGeometry x="99" y="65" width="30" height="60" as="geometry" />
        </mxCell>
        <mxCell id="LeFruTOL68ddHuIKSZCm-2" value="" style="endArrow=none;dashed=1;html=1;rounded=0;" parent="1" edge="1">
          <mxGeometry width="50" height="50" relative="1" as="geometry">
            <mxPoint x="114" y="500" as="sourcePoint" />
            <mxPoint x="113.72000000000003" y="155" as="targetPoint" />
          </mxGeometry>
        </mxCell>
        <mxCell id="LeFruTOL68ddHuIKSZCm-5" value="" style="html=1;points=[[0,0,0,0,5],[0,1,0,0,-5],[1,0,0,0,5],[1,1,0,0,-5]];perimeter=orthogonalPerimeter;outlineConnect=0;targetShapes=umlLifeline;portConstraint=eastwest;newEdgeStyle={&quot;curved&quot;:0,&quot;rounded&quot;:0};" parent="1" vertex="1">
          <mxGeometry x="109" y="175" width="10" height="293" as="geometry" />
        </mxCell>
        <mxCell id="LeFruTOL68ddHuIKSZCm-6" value=":Usuario" style="shape=umlLifeline;perimeter=lifelinePerimeter;whiteSpace=wrap;html=1;container=1;dropTarget=0;collapsible=0;recursiveResize=0;outlineConnect=0;portConstraint=eastwest;newEdgeStyle={&quot;curved&quot;:0,&quot;rounded&quot;:0};" parent="1" vertex="1">
          <mxGeometry x="584" y="100" width="140" height="375" as="geometry" />
        </mxCell>
        <mxCell id="LeFruTOL68ddHuIKSZCm-7" value="" style="html=1;points=[[0,0,0,0,5],[0,1,0,0,-5],[1,0,0,0,5],[1,1,0,0,-5]];perimeter=orthogonalPerimeter;outlineConnect=0;targetShapes=umlLifeline;portConstraint=eastwest;newEdgeStyle={&quot;curved&quot;:0,&quot;rounded&quot;:0};" parent="LeFruTOL68ddHuIKSZCm-6" vertex="1">
          <mxGeometry x="64" y="221" width="10" height="52" as="geometry" />
        </mxCell>
        <mxCell id="LeFruTOL68ddHuIKSZCm-8" value=":HistoricoTransacoes" style="shape=umlLifeline;perimeter=lifelinePerimeter;whiteSpace=wrap;html=1;container=1;dropTarget=0;collapsible=0;recursiveResize=0;outlineConnect=0;portConstraint=eastwest;newEdgeStyle={&quot;curved&quot;:0,&quot;rounded&quot;:0};" parent="1" vertex="1">
          <mxGeometry x="742" y="100" width="130" height="374" as="geometry" />
        </mxCell>
        <mxCell id="LeFruTOL68ddHuIKSZCm-54" value="" style="html=1;points=[[0,0,0,0,5],[0,1,0,0,-5],[1,0,0,0,5],[1,1,0,0,-5]];perimeter=orthogonalPerimeter;outlineConnect=0;targetShapes=umlLifeline;portConstraint=eastwest;newEdgeStyle={&quot;curved&quot;:0,&quot;rounded&quot;:0};" parent="LeFruTOL68ddHuIKSZCm-8" vertex="1">
          <mxGeometry x="59" y="268" width="10" height="49" as="geometry" />
        </mxCell>
        <mxCell id="LeFruTOL68ddHuIKSZCm-16" value="ordem:OrdemCompra" style="shape=umlLifeline;perimeter=lifelinePerimeter;whiteSpace=wrap;html=1;container=1;dropTarget=0;collapsible=0;recursiveResize=0;outlineConnect=0;portConstraint=eastwest;newEdgeStyle={&quot;curved&quot;:0,&quot;rounded&quot;:0};" parent="1" vertex="1">
          <mxGeometry x="414" y="100" width="130" height="376" as="geometry" />
        </mxCell>
        <mxCell id="LeFruTOL68ddHuIKSZCm-17" value="" style="html=1;points=[[0,0,0,0,5],[0,1,0,0,-5],[1,0,0,0,5],[1,1,0,0,-5]];perimeter=orthogonalPerimeter;outlineConnect=0;targetShapes=umlLifeline;portConstraint=eastwest;newEdgeStyle={&quot;curved&quot;:0,&quot;rounded&quot;:0};" parent="LeFruTOL68ddHuIKSZCm-16" vertex="1">
          <mxGeometry x="58" y="245" width="10" height="22" as="geometry" />
        </mxCell>
        <mxCell id="5VWyzkS2t0vmRnqxQFBa-20" value="" style="html=1;points=[[0,0,0,0,5],[0,1,0,0,-5],[1,0,0,0,5],[1,1,0,0,-5]];perimeter=orthogonalPerimeter;outlineConnect=0;targetShapes=umlLifeline;portConstraint=eastwest;newEdgeStyle={&quot;curved&quot;:0,&quot;rounded&quot;:0};" parent="LeFruTOL68ddHuIKSZCm-16" vertex="1">
          <mxGeometry x="59" y="98" width="10" height="22" as="geometry" />
        </mxCell>
        <mxCell id="5VWyzkS2t0vmRnqxQFBa-23" value="" style="html=1;points=[[0,0,0,0,5],[0,1,0,0,-5],[1,0,0,0,5],[1,1,0,0,-5]];perimeter=orthogonalPerimeter;outlineConnect=0;targetShapes=umlLifeline;portConstraint=eastwest;newEdgeStyle={&quot;curved&quot;:0,&quot;rounded&quot;:0};" parent="LeFruTOL68ddHuIKSZCm-16" vertex="1">
          <mxGeometry x="59" y="160" width="10" height="18" as="geometry" />
        </mxCell>
        <mxCell id="Ljz74V_naiSOcVQNEq21-2" value="" style="endArrow=none;html=1;rounded=0;endFill=0;startArrow=classic;startFill=1;" parent="1" source="LeFruTOL68ddHuIKSZCm-17" edge="1">
          <mxGeometry width="50" height="50" relative="1" as="geometry">
            <mxPoint x="510" y="347" as="sourcePoint" />
            <mxPoint x="646.5" y="347" as="targetPoint" />
          </mxGeometry>
        </mxCell>
        <mxCell id="Ljz74V_naiSOcVQNEq21-3" value="getTipoOrdem()" style="edgeLabel;html=1;align=center;verticalAlign=middle;resizable=0;points=[];" parent="Ljz74V_naiSOcVQNEq21-2" vertex="1" connectable="0">
          <mxGeometry x="0.1526" relative="1" as="geometry">
            <mxPoint x="-16" y="-8" as="offset" />
          </mxGeometry>
        </mxCell>
        <mxCell id="Ljz74V_naiSOcVQNEq21-4" value="" style="endArrow=classic;html=1;rounded=0;" parent="1" edge="1">
          <mxGeometry width="50" height="50" relative="1" as="geometry">
            <mxPoint x="337" y="321" as="sourcePoint" />
            <mxPoint x="648" y="321" as="targetPoint" />
          </mxGeometry>
        </mxCell>
        <mxCell id="Ljz74V_naiSOcVQNEq21-5" value="getHistoricoTransacoes(status)" style="edgeLabel;html=1;align=center;verticalAlign=middle;resizable=0;points=[];fontSize=9;" parent="Ljz74V_naiSOcVQNEq21-4" vertex="1" connectable="0">
          <mxGeometry x="-0.5083" y="1" relative="1" as="geometry">
            <mxPoint x="-7" y="-7" as="offset" />
          </mxGeometry>
        </mxCell>
        <mxCell id="Ljz74V_naiSOcVQNEq21-10" value="" style="endArrow=classic;html=1;rounded=0;startArrow=none;startFill=0;endFill=1;" parent="1" edge="1">
          <mxGeometry width="50" height="50" relative="1" as="geometry">
            <mxPoint x="658" y="373" as="sourcePoint" />
            <mxPoint x="800.5" y="373" as="targetPoint" />
          </mxGeometry>
        </mxCell>
        <mxCell id="Ljz74V_naiSOcVQNEq21-11" value="filtrarPorTipo(compra)" style="edgeLabel;html=1;align=center;verticalAlign=middle;resizable=0;points=[];" parent="Ljz74V_naiSOcVQNEq21-10" vertex="1" connectable="0">
          <mxGeometry x="-0.1293" y="-2" relative="1" as="geometry">
            <mxPoint x="11" y="-10" as="offset" />
          </mxGeometry>
        </mxCell>
        <mxCell id="Ljz74V_naiSOcVQNEq21-12" value="" style="endArrow=none;html=1;rounded=0;startArrow=open;startFill=0;endFill=0;dashed=1;" parent="1" source="5VWyzkS2t0vmRnqxQFBa-3" edge="1">
          <mxGeometry width="50" height="50" relative="1" as="geometry">
            <mxPoint x="124" y="417" as="sourcePoint" />
            <mxPoint x="804" y="417" as="targetPoint" />
          </mxGeometry>
        </mxCell>
        <mxCell id="Ljz74V_naiSOcVQNEq21-13" value="historico de ordens filtrado" style="edgeLabel;html=1;align=center;verticalAlign=middle;resizable=0;points=[];" parent="Ljz74V_naiSOcVQNEq21-12" vertex="1" connectable="0">
          <mxGeometry x="-0.3562" y="2" relative="1" as="geometry">
            <mxPoint x="246" y="11" as="offset" />
          </mxGeometry>
        </mxCell>
        <mxCell id="74VVQBNJoS1xNWypdeis-2" value="" style="endArrow=open;html=1;rounded=0;startArrow=none;startFill=0;endFill=0;dashed=1;" parent="1" edge="1">
          <mxGeometry width="50" height="50" relative="1" as="geometry">
            <mxPoint x="482" y="367" as="sourcePoint" />
            <mxPoint x="647.9999999999998" y="367" as="targetPoint" />
          </mxGeometry>
        </mxCell>
        <mxCell id="74VVQBNJoS1xNWypdeis-3" value="tipo: compra" style="edgeLabel;html=1;align=center;verticalAlign=middle;resizable=0;points=[];" parent="74VVQBNJoS1xNWypdeis-2" vertex="1" connectable="0">
          <mxGeometry x="0.4545" y="1" relative="1" as="geometry">
            <mxPoint x="-34" y="-8" as="offset" />
          </mxGeometry>
        </mxCell>
        <mxCell id="74VVQBNJoS1xNWypdeis-6" value="[se logado]" style="text;html=1;align=center;verticalAlign=middle;whiteSpace=wrap;rounded=0;" parent="1" vertex="1">
          <mxGeometry x="177" y="163" width="80" height="30" as="geometry" />
        </mxCell>
        <mxCell id="5VWyzkS2t0vmRnqxQFBa-1" value="UC-12&lt;div&gt;Consultar histório de ordens de compra&lt;/div&gt;" style="strokeWidth=2;html=1;shape=mxgraph.flowchart.start_1;whiteSpace=wrap;" parent="1" vertex="1">
          <mxGeometry x="530" y="-24" width="134" height="83" as="geometry" />
        </mxCell>
        <mxCell id="5VWyzkS2t0vmRnqxQFBa-2" value="&lt;b&gt;:Interface&lt;/b&gt;" style="shape=umlLifeline;perimeter=lifelinePerimeter;whiteSpace=wrap;html=1;container=0;dropTarget=0;collapsible=0;recursiveResize=0;outlineConnect=0;portConstraint=eastwest;newEdgeStyle={&quot;edgeStyle&quot;:&quot;elbowEdgeStyle&quot;,&quot;elbow&quot;:&quot;vertical&quot;,&quot;curved&quot;:0,&quot;rounded&quot;:0};" parent="1" vertex="1">
          <mxGeometry x="281" y="100" width="104" height="399" as="geometry" />
        </mxCell>
        <mxCell id="5VWyzkS2t0vmRnqxQFBa-3" value="" style="html=1;points=[];perimeter=orthogonalPerimeter;outlineConnect=0;targetShapes=umlLifeline;portConstraint=eastwest;newEdgeStyle={&quot;edgeStyle&quot;:&quot;elbowEdgeStyle&quot;,&quot;elbow&quot;:&quot;vertical&quot;,&quot;curved&quot;:0,&quot;rounded&quot;:0};" parent="5VWyzkS2t0vmRnqxQFBa-2" vertex="1">
          <mxGeometry x="47" y="77" width="10" height="264" as="geometry" />
        </mxCell>
        <mxCell id="5VWyzkS2t0vmRnqxQFBa-4" value="" style="endArrow=classic;html=1;rounded=0;" parent="1" target="5VWyzkS2t0vmRnqxQFBa-3" edge="1">
          <mxGeometry width="50" height="50" relative="1" as="geometry">
            <mxPoint x="119" y="189" as="sourcePoint" />
            <mxPoint x="291" y="188" as="targetPoint" />
          </mxGeometry>
        </mxCell>
        <mxCell id="5VWyzkS2t0vmRnqxQFBa-5" value="entra na tela de ordens e escolhe a&lt;div style=&quot;font-size: 10px;&quot;&gt;opção historico de ordens de compra e o&lt;/div&gt;&lt;div style=&quot;font-size: 10px;&quot;&gt;tipo (efetivadas, canceladas, modificadas)&lt;/div&gt;" style="edgeLabel;html=1;align=center;verticalAlign=middle;resizable=0;points=[];fontSize=10;" parent="5VWyzkS2t0vmRnqxQFBa-4" vertex="1" connectable="0">
          <mxGeometry x="-0.5083" y="1" relative="1" as="geometry">
            <mxPoint x="53" y="23" as="offset" />
          </mxGeometry>
        </mxCell>
        <mxCell id="5VWyzkS2t0vmRnqxQFBa-6" value=":APIB3" style="shape=umlLifeline;perimeter=lifelinePerimeter;whiteSpace=wrap;html=1;container=1;dropTarget=0;collapsible=0;recursiveResize=0;outlineConnect=0;portConstraint=eastwest;newEdgeStyle={&quot;curved&quot;:0,&quot;rounded&quot;:0};" parent="1" vertex="1">
          <mxGeometry x="897" y="99" width="130" height="373" as="geometry" />
        </mxCell>
        <mxCell id="5VWyzkS2t0vmRnqxQFBa-7" value="" style="html=1;points=[[0,0,0,0,5],[0,1,0,0,-5],[1,0,0,0,5],[1,1,0,0,-5]];perimeter=orthogonalPerimeter;outlineConnect=0;targetShapes=umlLifeline;portConstraint=eastwest;newEdgeStyle={&quot;curved&quot;:0,&quot;rounded&quot;:0};" parent="5VWyzkS2t0vmRnqxQFBa-6" vertex="1">
          <mxGeometry x="60" y="119" width="10" height="46" as="geometry" />
        </mxCell>
        <mxCell id="5VWyzkS2t0vmRnqxQFBa-8" value="API B3" style="shape=umlActor;verticalLabelPosition=bottom;verticalAlign=top;html=1;" parent="1" vertex="1">
          <mxGeometry x="1077" y="70" width="30" height="60" as="geometry" />
        </mxCell>
        <mxCell id="5VWyzkS2t0vmRnqxQFBa-9" value="" style="endArrow=none;dashed=1;html=1;rounded=0;" parent="1" source="5VWyzkS2t0vmRnqxQFBa-11" edge="1">
          <mxGeometry width="50" height="50" relative="1" as="geometry">
            <mxPoint x="1091.99" y="440" as="sourcePoint" />
            <mxPoint x="1091.71" y="160" as="targetPoint" />
          </mxGeometry>
        </mxCell>
        <mxCell id="5VWyzkS2t0vmRnqxQFBa-10" value="" style="endArrow=none;dashed=1;html=1;rounded=0;" parent="1" target="5VWyzkS2t0vmRnqxQFBa-11" edge="1">
          <mxGeometry width="50" height="50" relative="1" as="geometry">
            <mxPoint x="1092" y="475" as="sourcePoint" />
            <mxPoint x="1091.71" y="160" as="targetPoint" />
          </mxGeometry>
        </mxCell>
        <mxCell id="5VWyzkS2t0vmRnqxQFBa-11" value="" style="html=1;points=[[0,0,0,0,5],[0,1,0,0,-5],[1,0,0,0,5],[1,1,0,0,-5]];perimeter=orthogonalPerimeter;outlineConnect=0;targetShapes=umlLifeline;portConstraint=eastwest;newEdgeStyle={&quot;curved&quot;:0,&quot;rounded&quot;:0};" parent="1" vertex="1">
          <mxGeometry x="1087" y="232" width="10" height="20" as="geometry" />
        </mxCell>
        <mxCell id="5VWyzkS2t0vmRnqxQFBa-12" value="" style="endArrow=classic;html=1;rounded=0;" parent="1" edge="1">
          <mxGeometry width="50" height="50" relative="1" as="geometry">
            <mxPoint x="966.9999999999998" y="232.4999999999999" as="sourcePoint" />
            <mxPoint x="1086.9999999999998" y="232.4999999999999" as="targetPoint" />
          </mxGeometry>
        </mxCell>
        <mxCell id="5VWyzkS2t0vmRnqxQFBa-13" value="consulta status&lt;div&gt;da ordem de&lt;/div&gt;&lt;div&gt;compra&lt;/div&gt;" style="edgeLabel;html=1;align=center;verticalAlign=middle;resizable=0;points=[];" parent="5VWyzkS2t0vmRnqxQFBa-12" vertex="1" connectable="0">
          <mxGeometry x="0.1201" relative="1" as="geometry">
            <mxPoint x="-9" y="-22" as="offset" />
          </mxGeometry>
        </mxCell>
        <mxCell id="5VWyzkS2t0vmRnqxQFBa-14" value="" style="endArrow=none;html=1;rounded=0;startArrow=open;startFill=0;endFill=0;dashed=1;" parent="1" edge="1">
          <mxGeometry width="50" height="50" relative="1" as="geometry">
            <mxPoint x="966.9999999999998" y="250.9999999999999" as="sourcePoint" />
            <mxPoint x="1086.9999999999998" y="250.9999999999999" as="targetPoint" />
          </mxGeometry>
        </mxCell>
        <mxCell id="5VWyzkS2t0vmRnqxQFBa-15" value="status atual da&amp;nbsp;&lt;div&gt;ordem de compra&lt;/div&gt;" style="edgeLabel;html=1;align=center;verticalAlign=middle;resizable=0;points=[];" parent="5VWyzkS2t0vmRnqxQFBa-14" vertex="1" connectable="0">
          <mxGeometry x="0.1201" relative="1" as="geometry">
            <mxPoint x="-5" y="16" as="offset" />
          </mxGeometry>
        </mxCell>
        <mxCell id="5VWyzkS2t0vmRnqxQFBa-16" value="" style="endArrow=classic;html=1;rounded=0;" parent="1" target="5VWyzkS2t0vmRnqxQFBa-20" edge="1">
          <mxGeometry width="50" height="50" relative="1" as="geometry">
            <mxPoint x="339" y="200" as="sourcePoint" />
            <mxPoint x="463" y="200" as="targetPoint" />
          </mxGeometry>
        </mxCell>
        <mxCell id="5VWyzkS2t0vmRnqxQFBa-17" value="getStatus(ordem)" style="edgeLabel;html=1;align=center;verticalAlign=middle;resizable=0;points=[];" parent="5VWyzkS2t0vmRnqxQFBa-16" vertex="1" connectable="0">
          <mxGeometry x="0.1526" relative="1" as="geometry">
            <mxPoint x="-12" y="-9" as="offset" />
          </mxGeometry>
        </mxCell>
        <mxCell id="5VWyzkS2t0vmRnqxQFBa-18" value="" style="endArrow=classic;html=1;rounded=0;" parent="1" target="5VWyzkS2t0vmRnqxQFBa-7" edge="1">
          <mxGeometry width="50" height="50" relative="1" as="geometry">
            <mxPoint x="483" y="220" as="sourcePoint" />
            <mxPoint x="656" y="220" as="targetPoint" />
          </mxGeometry>
        </mxCell>
        <mxCell id="5VWyzkS2t0vmRnqxQFBa-19" value="consultarStatusOrdem(ordem)" style="edgeLabel;html=1;align=center;verticalAlign=middle;resizable=0;points=[];" parent="5VWyzkS2t0vmRnqxQFBa-18" vertex="1" connectable="0">
          <mxGeometry x="-0.5083" y="1" relative="1" as="geometry">
            <mxPoint x="-37" y="-7" as="offset" />
          </mxGeometry>
        </mxCell>
        <mxCell id="5VWyzkS2t0vmRnqxQFBa-21" value="" style="endArrow=none;html=1;rounded=0;startArrow=open;startFill=0;endFill=0;dashed=1;" parent="1" edge="1">
          <mxGeometry width="50" height="50" relative="1" as="geometry">
            <mxPoint x="484" y="265" as="sourcePoint" />
            <mxPoint x="959.5" y="264" as="targetPoint" />
          </mxGeometry>
        </mxCell>
        <mxCell id="5VWyzkS2t0vmRnqxQFBa-22" value="status" style="edgeLabel;html=1;align=center;verticalAlign=middle;resizable=0;points=[];" parent="5VWyzkS2t0vmRnqxQFBa-21" vertex="1" connectable="0">
          <mxGeometry x="-0.3562" y="2" relative="1" as="geometry">
            <mxPoint x="300" y="-6" as="offset" />
          </mxGeometry>
        </mxCell>
        <mxCell id="5VWyzkS2t0vmRnqxQFBa-24" value="" style="endArrow=none;html=1;rounded=0;startArrow=open;startFill=0;endFill=0;dashed=1;" parent="1" edge="1">
          <mxGeometry width="50" height="50" relative="1" as="geometry">
            <mxPoint x="339.3333333333333" y="278" as="sourcePoint" />
            <mxPoint x="475.5" y="278" as="targetPoint" />
          </mxGeometry>
        </mxCell>
        <mxCell id="5VWyzkS2t0vmRnqxQFBa-25" value="status" style="edgeLabel;html=1;align=center;verticalAlign=middle;resizable=0;points=[];" parent="5VWyzkS2t0vmRnqxQFBa-24" vertex="1" connectable="0">
          <mxGeometry x="-0.3562" y="2" relative="1" as="geometry">
            <mxPoint x="70" y="-6" as="offset" />
          </mxGeometry>
        </mxCell>
        <mxCell id="5VWyzkS2t0vmRnqxQFBa-27" value="" style="endArrow=open;html=1;rounded=0;fontSize=12;startSize=8;endSize=8;curved=1;endFill=0;dashed=1;" parent="1" target="LeFruTOL68ddHuIKSZCm-5" edge="1">
          <mxGeometry width="50" height="50" relative="1" as="geometry">
            <mxPoint x="328" y="431" as="sourcePoint" />
            <mxPoint x="378" y="381" as="targetPoint" />
          </mxGeometry>
        </mxCell>
        <mxCell id="5VWyzkS2t0vmRnqxQFBa-28" value="exibe histórico de ordens&lt;div&gt;filtrado ao usuário&lt;/div&gt;" style="edgeLabel;html=1;align=center;verticalAlign=middle;resizable=0;points=[];fontSize=12;" parent="5VWyzkS2t0vmRnqxQFBa-27" vertex="1" connectable="0">
          <mxGeometry x="0.085" y="-1" relative="1" as="geometry">
            <mxPoint x="7" y="18" as="offset" />
          </mxGeometry>
        </mxCell>
      </root>
    </mxGraphModel>
  </diagram>
</mxfile>
